<?xml version="1.0" encoding="utf-8"?>
<!-- Generator: Adobe Illustrator 28.0.0, SVG Export Plug-In . SVG Version: 6.00 Build 0)  -->
<svg version="1.1" id="Слой_1" xmlns="http://www.w3.org/2000/svg" xmlns:xlink="http://www.w3.org/1999/xlink" x="0px" y="0px"
	 viewBox="0 0 512 512" style="enable-background:new 0 0 512 512;" xml:space="preserve">
<style type="text/css">
	.st0{fill-rule:evenodd;clip-rule:evenodd;}
</style>
<path class="st0" d="M173.9,124.7c26-2.2,53.9-3.7,82.1-3.7s56.1,1.5,82.1,3.7c31.3,2.7,51.6,4.4,67.1,8.1
	c14.1,3.3,22,7.7,28.8,14.7c0.7,0.8,1.8,1.9,2.5,2.7c6,6.9,9.9,15.5,12.1,31.9c2.4,17.5,2.5,40.3,2.5,74.8c0,34.1-0.1,56.6-2.5,73.8
	c-2.2,16.1-6.1,24.6-12.2,31.6c-0.7,0.8-1.8,2-2.5,2.7c-6.9,7-14.7,11.4-28.4,14.6c-15.2,3.6-35,5.3-65.8,7.9
	c-26,2.2-54.4,3.6-83.6,3.6s-57.6-1.4-83.6-3.6c-30.8-2.6-50.6-4.3-65.8-7.9c-13.8-3.3-21.6-7.6-28.4-14.6c-0.7-0.7-1.8-1.9-2.5-2.7
	c-6-7-9.9-15.5-12.2-31.6c-2.4-17.3-2.5-39.8-2.5-73.8c0-34.5,0.1-57.3,2.5-74.8c2.2-16.3,6.2-24.9,12.1-31.9
	c0.7-0.8,1.7-1.9,2.5-2.7c6.8-6.9,14.6-11.3,28.8-14.7C122.3,129.1,142.6,127.3,173.9,124.7z M31,256.7c0-67.3,0-100.9,21.9-126.2
	c1.1-1.3,2.6-2.9,3.7-4.1c23.4-24,53.9-26.5,114.8-31.7c26.7-2.3,55.4-3.8,84.6-3.8s57.9,1.5,84.6,3.8c60.9,5.2,91.4,7.7,114.8,31.7
	c1.2,1.2,2.6,2.8,3.7,4.1c21.9,25.3,21.9,59,21.9,126.2c0,66.5,0,99.7-21.9,125c-1.1,1.3-2.6,2.9-3.7,4.1
	c-23.4,24-53.4,26.5-113.2,31.4c-26.7,2.2-55.9,3.7-86.1,3.7s-59.4-1.5-86.1-3.7c-59.8-5-89.8-7.5-113.2-31.4
	c-1.2-1.2-2.6-2.8-3.7-4.1C31,356.4,31,323.2,31,256.7z M188.5,192.5c0-5.4,5.6-9,10.5-6.9l144.8,63.5c6,2.6,6,11.1,0,13.7
	L199,326.4c-5,2.2-10.5-1.5-10.5-6.9V192.5z"/>
</svg>
